<?xml version="1.0" encoding="UTF-8"?>
<!DOCTYPE svg PUBLIC "-//W3C//DTD SVG 1.1//EN" "http://www.w3.org/Graphics/SVG/1.1/DTD/svg11.dtd">
<svg xmlns="http://www.w3.org/2000/svg" version="1.1" width="1200px" height="1200px" style="shape-rendering:geometricPrecision; text-rendering:geometricPrecision; image-rendering:optimizeQuality; fill-rule:evenodd; clip-rule:evenodd" xmlns:xlink="http://www.w3.org/1999/xlink">
<g><path style="opacity:1" fill="#ededed" d="M -0.5,-0.5 C 399.5,-0.5 799.5,-0.5 1199.5,-0.5C 1199.5,399.5 1199.5,799.5 1199.5,1199.5C 799.5,1199.5 399.5,1199.5 -0.5,1199.5C -0.5,799.5 -0.5,399.5 -0.5,-0.5 Z"/></g>
<g><path style="opacity:1" fill="#7aa5d2" d="M 599.5,224.5 C 604.433,226.635 609.099,229.302 613.5,232.5C 606.317,247.531 599.151,262.531 592,277.5C 583.79,266.243 575.957,254.743 568.5,243C 578.223,235.805 588.556,229.639 599.5,224.5 Z"/></g>
<g><path style="opacity:1" fill="#7aa5d2" d="M 652.5,365.5 C 633.017,338.356 614.35,310.69 596.5,282.5C 603.386,266.395 611.053,250.729 619.5,235.5C 645.91,250.431 671.91,265.931 697.5,282C 682.876,310.084 667.876,337.917 652.5,365.5 Z"/></g>
<g><path style="opacity:1" fill="#7aa5d2" d="M 595.5,282.5 C 595.245,285.016 594.411,287.35 593,289.5C 592.047,287.545 590.713,285.878 589,284.5C 562.331,342.499 535.165,400.166 507.5,457.5C 477.834,421.664 448.334,385.664 419,349.5C 418.333,342.833 418.333,336.167 419,329.5C 466.751,301.374 514.585,273.374 562.5,245.5C 571.528,258.029 580.361,270.695 589,283.5C 590.252,281.999 591.252,280.332 592,278.5C 593.405,279.731 594.571,281.064 595.5,282.5 Z"/></g>
<g><path style="opacity:1" fill="#e9ebec" d="M 595.5,282.5 C 595.833,282.5 596.167,282.5 596.5,282.5C 614.35,310.69 633.017,338.356 652.5,365.5C 652.5,365.833 652.5,366.167 652.5,366.5C 651.356,368.1 650.189,369.767 649,371.5C 630.723,344.225 612.057,317.225 593,290.5C 566.106,347.954 538.94,405.288 511.5,462.5C 510.479,460.812 509.145,459.479 507.5,458.5C 507.5,458.167 507.5,457.833 507.5,457.5C 535.165,400.166 562.331,342.499 589,284.5C 590.713,285.878 592.047,287.545 593,289.5C 594.411,287.35 595.245,285.016 595.5,282.5 Z"/></g>
<g><path style="opacity:1" fill="#7aa5d2" d="M 748.5,504.5 C 717.196,460.582 686.363,416.249 656,371.5C 654.748,373.001 653.748,374.668 653,376.5C 652.044,375.421 651.211,374.255 650.5,373C 649.551,372.383 648.718,372.549 648,373.5C 620.167,424.5 592.333,475.5 564.5,526.5C 547.01,505.54 529.51,484.54 512,463.5C 510.811,465.233 509.644,466.9 508.5,468.5C 507.524,467.185 506.524,465.852 505.5,464.5C 489.705,497.257 474.038,530.091 458.5,563C 445.359,556.422 432.359,549.256 419.5,541.5C 418.333,480.503 418.167,419.503 419,358.5C 447.289,393.791 475.955,428.791 505,463.5C 506.12,461.97 506.954,460.303 507.5,458.5C 509.145,459.479 510.479,460.812 511.5,462.5C 538.94,405.288 566.106,347.954 593,290.5C 612.057,317.225 630.723,344.225 649,371.5C 650.189,369.767 651.356,368.1 652.5,366.5C 653.429,367.936 654.595,369.269 656,370.5C 672.034,341.96 687.867,313.294 703.5,284.5C 729.247,299.122 754.747,314.122 780,329.5C 780.667,368.5 780.667,407.5 780,446.5C 769.233,465.701 758.733,485.034 748.5,504.5 Z"/></g>
<g><path style="opacity:1" fill="#e9ebec" d="M 748.5,504.5 C 748.5,504.833 748.5,505.167 748.5,505.5C 746.864,506.749 745.697,508.416 745,510.5C 714.087,466.341 683.42,422.008 653,377.5C 624.667,428.833 596.333,480.167 568,531.5C 566.615,530.449 565.615,529.116 565,527.5C 563.426,528.984 562.093,530.651 561,532.5C 543.96,510.974 526.46,489.974 508.5,469.5C 508.5,469.167 508.5,468.833 508.5,468.5C 509.644,466.9 510.811,465.233 512,463.5C 529.51,484.54 547.01,505.54 564.5,526.5C 592.333,475.5 620.167,424.5 648,373.5C 648.718,372.549 649.551,372.383 650.5,373C 651.211,374.255 652.044,375.421 653,376.5C 653.748,374.668 654.748,373.001 656,371.5C 686.363,416.249 717.196,460.582 748.5,504.5 Z"/></g>
<g><path style="opacity:1" fill="#7aa5d2" d="M 748.5,505.5 C 749.028,506.721 749.695,507.887 750.5,509C 751.332,509.688 751.998,509.521 752.5,508.5C 761.921,491.994 771.087,475.327 780,458.5C 780.833,486.173 780.667,513.839 779.5,541.5C 777.588,543.156 775.588,543.489 773.5,542.5C 766.4,531.953 759.067,521.62 751.5,511.5C 750.5,512.833 749.5,514.167 748.5,515.5C 747.52,514.019 746.353,512.685 745,511.5C 730.932,535.912 717.266,560.579 704,585.5C 683.37,597.301 662.87,609.301 642.5,621.5C 617.833,591.833 593.167,562.167 568.5,532.5C 567.5,533.833 566.5,535.167 565.5,536.5C 564.167,535.5 562.833,534.5 561.5,533.5C 561.167,533.833 560.833,534.167 560.5,534.5C 548.494,557.185 535.994,579.518 523,601.5C 503.349,590.174 483.683,578.84 464,567.5C 478.51,534.805 493.343,502.139 508.5,469.5C 526.46,489.974 543.96,510.974 561,532.5C 562.093,530.651 563.426,528.984 565,527.5C 565.615,529.116 566.615,530.449 568,531.5C 596.333,480.167 624.667,428.833 653,377.5C 683.42,422.008 714.087,466.341 745,510.5C 745.697,508.416 746.864,506.749 748.5,505.5 Z"/></g>
<g><path style="opacity:1" fill="#7ba5d2" d="M 747.5,516.5 C 755.358,526.206 762.691,536.373 769.5,547C 751.251,557.707 733.084,568.541 715,579.5C 725.773,558.624 736.606,537.624 747.5,516.5 Z"/></g>
<g><path style="opacity:1" fill="#7aa5d2" d="M 564.5,538.5 C 566.371,538.859 567.871,539.859 569,541.5C 591.311,569.312 613.811,596.978 636.5,624.5C 624.709,632.146 612.543,639.146 600,645.5C 575.836,632.665 552.002,619.165 528.5,605C 540.906,583.019 552.906,560.852 564.5,538.5 Z"/></g>
<g><path style="opacity:1" fill="#7ba5d2" d="M 328.5,738.5 C 336.684,738.537 339.851,742.537 338,750.5C 333,755.833 328,755.833 323,750.5C 321.036,744.532 322.869,740.532 328.5,738.5 Z"/></g>
<g><path style="opacity:1" fill="#7aa5d2" d="M 724.5,743.5 C 723.342,753.325 723.175,763.325 724,773.5C 724.717,772.956 725.217,772.289 725.5,771.5C 735.071,763.588 744.571,763.588 754,771.5C 756.638,777.413 758.138,783.579 758.5,790C 758.461,800.486 758.128,810.986 757.5,821.5C 753.167,821.5 748.833,821.5 744.5,821.5C 744.667,808.829 744.5,796.162 744,783.5C 742.096,776.132 737.596,773.965 730.5,777C 727.131,779.365 724.964,782.532 724,786.5C 723.5,798.162 723.333,809.829 723.5,821.5C 719.167,821.5 714.833,821.5 710.5,821.5C 710.5,794.833 710.5,768.167 710.5,741.5C 715.619,740.897 720.285,741.564 724.5,743.5 Z"/></g>
<g><path style="opacity:1" fill="#c6d6e4" d="M 724.5,743.5 C 724.173,753.015 724.506,762.348 725.5,771.5C 725.217,772.289 724.717,772.956 724,773.5C 723.175,763.325 723.342,753.325 724.5,743.5 Z"/></g>
<g><path style="opacity:1" fill="#7aa5d2" d="M 169.5,746.5 C 187.5,746.5 205.5,746.5 223.5,746.5C 223.5,750.167 223.5,753.833 223.5,757.5C 216.5,757.5 209.5,757.5 202.5,757.5C 202.5,778.833 202.5,800.167 202.5,821.5C 198.167,821.5 193.833,821.5 189.5,821.5C 189.5,800.167 189.5,778.833 189.5,757.5C 182.833,757.5 176.167,757.5 169.5,757.5C 169.5,753.833 169.5,750.167 169.5,746.5 Z"/></g>
<g><path style="opacity:1" fill="#7ba5d2" d="M 439.5,747.5 C 449.325,746.342 459.325,746.175 469.5,747C 481.966,748.455 488.632,755.121 489.5,767C 488.131,773.358 484.798,778.358 479.5,782C 489.846,787.013 493.679,795.18 491,806.5C 486.906,815.647 479.74,820.48 469.5,821C 459.5,821.667 449.5,821.667 439.5,821C 440.736,796.382 440.736,771.882 439.5,747.5 Z"/></g>
<g><path style="opacity:1" fill="#7ba5d2" d="M 667.5,751.5 C 668.5,751.5 669.5,751.5 670.5,751.5C 669.508,756.452 668.842,761.452 668.5,766.5C 674.5,766.5 680.5,766.5 686.5,766.5C 686.5,770.167 686.5,773.833 686.5,777.5C 680.5,777.5 674.5,777.5 668.5,777.5C 667.63,786.154 667.464,794.82 668,803.5C 668.979,810.405 672.813,812.905 679.5,811C 682.698,810.152 685.531,808.652 688,806.5C 688.911,809.311 689.744,812.144 690.5,815C 689.339,817.593 687.339,819.259 684.5,820C 676.299,823.645 668.299,823.311 660.5,819C 658.623,816.749 657.123,814.249 656,811.5C 654.591,800.23 654.091,788.896 654.5,777.5C 650.833,777.5 647.167,777.5 643.5,777.5C 643.5,773.833 643.5,770.167 643.5,766.5C 647.5,766.5 651.5,766.5 655.5,766.5C 655.5,762.167 655.5,757.833 655.5,753.5C 659.684,753.149 663.684,752.482 667.5,751.5 Z"/></g>
<g><path style="opacity:1" fill="#eceded" d="M 453.5,757.5 C 458.511,757.334 463.511,757.501 468.5,758C 475.392,760.851 477.225,765.684 474,772.5C 472.421,774.041 470.587,775.208 468.5,776C 463.511,776.499 458.511,776.666 453.5,776.5C 453.5,770.167 453.5,763.833 453.5,757.5 Z"/></g>
<g><path style="opacity:1" fill="#7aa5d2" d="M 269.5,765.5 C 277.452,763.984 284.118,766.151 289.5,772C 287.46,775.914 285.293,779.748 283,783.5C 276.554,774.864 269.221,774.197 261,781.5C 259.335,784.513 258.168,787.68 257.5,791C 257.469,800.559 257.802,810.226 258.5,820C 254.028,821.437 249.361,821.937 244.5,821.5C 244.5,803.167 244.5,784.833 244.5,766.5C 249.167,766.5 253.833,766.5 258.5,766.5C 258.336,769.187 258.503,771.854 259,774.5C 261.489,770.168 264.989,767.168 269.5,765.5 Z"/></g>
<g><path style="opacity:1" fill="#7ba5d2" d="M 391.5,765.5 C 410.368,764.534 421.368,773.368 424.5,792C 423.012,814.474 411.012,824.141 388.5,821C 373.71,813.238 368.21,801.405 372,785.5C 375.378,775.624 381.878,768.957 391.5,765.5 Z"/></g>
<g><path style="opacity:1" fill="#7aa5d2" d="M 538.5,765.5 C 546.452,763.984 553.118,766.151 558.5,772C 556.46,775.914 554.293,779.748 552,783.5C 545.554,774.864 538.221,774.197 530,781.5C 528.335,784.513 527.168,787.68 526.5,791C 526.469,800.559 526.802,810.226 527.5,820C 523.028,821.437 518.361,821.937 513.5,821.5C 513.5,803.167 513.5,784.833 513.5,766.5C 518.167,766.5 522.833,766.5 527.5,766.5C 527.336,769.187 527.503,771.854 528,774.5C 530.489,770.168 533.989,767.168 538.5,765.5 Z"/></g>
<g><path style="opacity:1" fill="#7ba5d2" d="M 593.5,765.5 C 612.368,764.534 623.368,773.368 626.5,792C 625.012,814.474 613.012,824.141 590.5,821C 575.71,813.238 570.21,801.405 574,785.5C 577.378,775.624 583.878,768.957 593.5,765.5 Z"/></g>
<g><path style="opacity:1" fill="#7ba5d2" d="M 796.5,765.5 C 818.393,764.732 828.393,775.399 826.5,797.5C 814.167,797.5 801.833,797.5 789.5,797.5C 790.191,807.023 795.357,812.023 805,812.5C 810.071,812.132 814.405,810.132 818,806.5C 820.35,808.683 822.517,811.016 824.5,813.5C 819.159,819.677 812.325,822.677 804,822.5C 789.672,822.156 780.672,815.156 777,801.5C 774.631,789.803 777.464,779.636 785.5,771C 788.99,768.588 792.657,766.755 796.5,765.5 Z"/></g>
<g><path style="opacity:1" fill="#7aa5d2" d="M 874.5,765.5 C 882.452,763.984 889.118,766.151 894.5,772C 892.46,775.914 890.293,779.748 888,783.5C 881.554,774.864 874.221,774.197 866,781.5C 864.335,784.513 863.168,787.68 862.5,791C 862.469,800.559 862.802,810.226 863.5,820C 859.028,821.437 854.361,821.937 849.5,821.5C 849.5,803.167 849.5,784.833 849.5,766.5C 854.167,766.5 858.833,766.5 863.5,766.5C 863.336,769.187 863.503,771.854 864,774.5C 866.489,770.168 869.989,767.168 874.5,765.5 Z"/></g>
<g><path style="opacity:1" fill="#7ba5d2" d="M 996.5,765.5 C 1007.6,763.854 1017.26,766.687 1025.5,774C 1023.04,777.078 1020.71,780.244 1018.5,783.5C 1012.46,775.738 1004.79,773.738 995.5,777.5C 992.92,779.713 992.92,781.88 995.5,784C 1003.57,786.8 1011.57,789.8 1019.5,793C 1027.76,799.909 1028.59,807.742 1022,816.5C 1010.37,823.548 998.202,824.381 985.5,819C 983.246,817.623 981.08,816.123 979,814.5C 979.435,809.956 981.268,805.956 984.5,802.5C 990.895,810.577 999.229,813.411 1009.5,811C 1015.66,808.204 1015.99,804.871 1010.5,801C 1002.93,798.942 995.598,796.276 988.5,793C 980.536,786.617 979.536,779.284 985.5,771C 988.99,768.588 992.657,766.755 996.5,765.5 Z"/></g>
<g><path style="opacity:1" fill="#7ba5d2" d="M 311.5,766.5 C 320.167,766.5 328.833,766.5 337.5,766.5C 337.5,781.167 337.5,795.833 337.5,810.5C 341.833,810.5 346.167,810.5 350.5,810.5C 350.5,814.167 350.5,817.833 350.5,821.5C 337.167,821.5 323.833,821.5 310.5,821.5C 310.5,817.833 310.5,814.167 310.5,810.5C 315.167,810.5 319.833,810.5 324.5,810.5C 324.5,799.5 324.5,788.5 324.5,777.5C 320.167,777.5 315.833,777.5 311.5,777.5C 311.5,773.833 311.5,770.167 311.5,766.5 Z"/></g>
<g><path style="opacity:1" fill="#eceded" d="M 393.5,776.5 C 402.894,775.271 408.394,779.271 410,788.5C 412.07,797.97 409.236,805.47 401.5,811C 392.485,812.33 386.985,808.496 385,799.5C 382.65,789.697 385.483,782.031 393.5,776.5 Z"/></g>
<g><path style="opacity:1" fill="#eceded" d="M 595.5,776.5 C 604.894,775.271 610.394,779.271 612,788.5C 614.07,797.97 611.236,805.47 603.5,811C 594.485,812.33 588.985,808.496 587,799.5C 584.65,789.697 587.483,782.031 595.5,776.5 Z"/></g>
<g><path style="opacity:1" fill="#ebeced" d="M 799.5,775.5 C 808.208,774.879 812.875,778.879 813.5,787.5C 805.5,787.5 797.5,787.5 789.5,787.5C 790.346,781.329 793.679,777.329 799.5,775.5 Z"/></g>
<g><path style="opacity:1" fill="#7aa5d2" d="M 918.5,777.5 C 930.167,777.5 941.833,777.5 953.5,777.5C 953.5,781.167 953.5,784.833 953.5,788.5C 941.833,788.5 930.167,788.5 918.5,788.5C 918.5,784.833 918.5,781.167 918.5,777.5 Z"/></g>
<g><path style="opacity:1" fill="#eceded" d="M 453.5,787.5 C 459.593,787.139 465.593,787.639 471.5,789C 477.404,792.808 479.238,797.975 477,804.5C 475.457,806.378 473.624,807.878 471.5,809C 465.593,810.361 459.593,810.861 453.5,810.5C 453.5,802.833 453.5,795.167 453.5,787.5 Z"/></g>
<g><path style="opacity:1" fill="#92b4d7" d="M 300.5,886.5 C 307.978,887.75 309.311,891.25 304.5,897C 298.333,898.167 295.833,895.667 297,889.5C 298.145,888.364 299.312,887.364 300.5,886.5 Z"/></g>
<g><path style="opacity:1" fill="#92b4d7" d="M 261.5,893.5 C 261.5,907.5 261.5,921.5 261.5,935.5C 265.167,935.5 268.833,935.5 272.5,935.5C 272.5,937.833 272.5,940.167 272.5,942.5C 262.167,942.5 251.833,942.5 241.5,942.5C 241.5,940.167 241.5,937.833 241.5,935.5C 245.167,935.5 248.833,935.5 252.5,935.5C 252.5,921.833 252.5,908.167 252.5,894.5C 249.167,894.5 245.833,894.5 242.5,894.5C 242.5,892.167 242.5,889.833 242.5,887.5C 248.833,887.5 255.167,887.5 261.5,887.5C 261.5,889.5 261.5,891.5 261.5,893.5 Z"/></g>
<g><path style="opacity:1" fill="#92b4d7" d="M 721.5,887.5 C 724.85,887.335 728.183,887.502 731.5,888C 730.508,906.09 730.174,924.257 730.5,942.5C 727.813,942.664 725.146,942.497 722.5,942C 721.809,940.933 721.309,939.766 721,938.5C 713.967,944.59 706.967,944.257 700,937.5C 696.719,931.21 695.719,924.543 697,917.5C 698.956,909.38 704.123,905.047 712.5,904.5C 715.743,905.015 718.576,906.348 721,908.5C 721.5,901.508 721.666,894.508 721.5,887.5 Z"/></g>
<g><path style="opacity:1" fill="#92b4d7" d="M 127.5,946.5 C 129.948,947.473 132.615,947.806 135.5,947.5C 135.5,949.833 135.5,952.167 135.5,954.5C 129.951,954.913 124.618,954.08 119.5,952C 117.374,949.567 116.041,946.734 115.5,943.5C 107.409,940.236 102.909,934.236 102,925.5C 100.484,916.043 101.817,907.043 106,898.5C 112.716,891.254 120.549,889.754 129.5,894C 136.521,900.221 139.521,908.054 138.5,917.5C 139.205,924.68 137.705,931.347 134,937.5C 131.654,940.505 128.654,942.505 125,943.5C 124.481,945.489 125.314,946.489 127.5,946.5 Z"/></g>
<g><path style="opacity:1" fill="#92b4d7" d="M 467.5,891.5 C 475.893,891.17 484.227,891.67 492.5,893C 500.737,897.138 502.903,903.304 499,911.5C 497.649,913.019 496.149,914.352 494.5,915.5C 505.815,923.504 506.149,931.671 495.5,940C 486.328,942.271 476.994,943.105 467.5,942.5C 467.5,925.5 467.5,908.5 467.5,891.5 Z"/></g>
<g><path style="opacity:1" fill="#92b4d7" d="M 815.5,942.5 C 815.667,930.829 815.5,919.162 815,907.5C 814.487,908.527 813.987,909.527 813.5,910.5C 811.515,915.141 809.515,919.807 807.5,924.5C 805.833,925.833 804.167,925.833 802.5,924.5C 800.057,919.28 797.89,913.947 796,908.5C 795.667,908.833 795.333,909.167 795,909.5C 794.5,920.495 794.333,931.495 794.5,942.5C 792.167,942.5 789.833,942.5 787.5,942.5C 787.5,925.5 787.5,908.5 787.5,891.5C 790.247,891.187 792.914,891.52 795.5,892.5C 798.391,899.95 801.558,907.283 805,914.5C 808.326,907.201 811.659,899.868 815,892.5C 817.737,891.39 820.571,891.223 823.5,892C 822.167,908.667 822.167,925.333 823.5,942C 820.854,942.497 818.187,942.664 815.5,942.5 Z"/></g>
<g><path style="opacity:1" fill="#c6d6e4" d="M 261.5,893.5 C 262.496,906.99 262.829,920.656 262.5,934.5C 266.042,934.187 269.375,934.521 272.5,935.5C 268.833,935.5 265.167,935.5 261.5,935.5C 261.5,921.5 261.5,907.5 261.5,893.5 Z"/></g>
<g><path style="opacity:1" fill="#92b4d7" d="M 348.5,895.5 C 349.376,895.369 350.043,895.702 350.5,896.5C 349.593,899.421 349.26,902.421 349.5,905.5C 353.5,905.5 357.5,905.5 361.5,905.5C 361.5,907.833 361.5,910.167 361.5,912.5C 357.445,912.176 353.445,912.509 349.5,913.5C 348.043,919.922 348.21,926.589 350,933.5C 353.979,936.713 357.979,936.379 362,932.5C 363.132,934.339 363.965,936.339 364.5,938.5C 358.786,942.947 352.786,944.114 346.5,942C 344.714,941.215 343.214,940.049 342,938.5C 339.342,930.339 338.842,922.339 340.5,914.5C 340.291,913.914 339.957,913.414 339.5,913C 337.19,912.503 334.857,912.337 332.5,912.5C 332.5,910.167 332.5,907.833 332.5,905.5C 335.167,905.5 337.833,905.5 340.5,905.5C 340.336,902.813 340.503,900.146 341,897.5C 343.607,896.877 346.107,896.21 348.5,895.5 Z"/></g>
<g><path style="opacity:1" fill="#ebeced" d="M 119.5,898.5 C 123.316,899.154 126.149,901.154 128,904.5C 131.515,913.997 131.182,923.331 127,932.5C 118.937,938.823 113.603,936.823 111,926.5C 109.257,918.742 109.924,911.076 113,903.5C 114.603,900.965 116.769,899.298 119.5,898.5 Z"/></g>
<g><path style="opacity:1" fill="#c6d6e4" d="M 477.5,899.5 C 477.5,903.5 477.5,907.5 477.5,911.5C 480.167,911.5 482.833,911.5 485.5,911.5C 482.713,912.477 479.713,912.81 476.5,912.5C 476.182,907.968 476.515,903.634 477.5,899.5 Z"/></g>
<g><path style="opacity:1" fill="#ebeced" d="M 485.5,911.5 C 482.833,911.5 480.167,911.5 477.5,911.5C 477.5,907.5 477.5,903.5 477.5,899.5C 482.173,897.983 486.673,898.649 491,901.5C 492.931,907.159 491.098,910.493 485.5,911.5 Z"/></g>
<g><path style="opacity:1" fill="#92b4d7" d="M 209.5,904.5 C 212.915,904.958 216.582,905.791 220.5,907C 222.917,908.663 224.75,910.829 226,913.5C 227.391,923.1 227.891,932.767 227.5,942.5C 224.5,942.5 221.5,942.5 218.5,942.5C 218.657,941.127 218.49,939.793 218,938.5C 210.949,944.443 203.783,944.943 196.5,940C 191.485,931.022 193.818,924.689 203.5,921C 208.623,920.196 213.623,919.196 218.5,918C 213.588,910.448 207.588,909.615 200.5,915.5C 195.999,913.21 195.332,910.71 198.5,908C 202.161,906.407 205.828,905.241 209.5,904.5 Z"/></g>
<g><path style="opacity:1" fill="#92b4d7" d="M 530.5,904.5 C 543.303,905.691 548.97,913.025 547.5,926.5C 539.167,926.5 530.833,926.5 522.5,926.5C 523.538,932.371 527.038,935.704 533,936.5C 536.455,936.129 539.455,934.795 542,932.5C 547.675,936.665 546.841,939.831 539.5,942C 525.97,945.24 517.304,940.24 513.5,927C 512.897,914.769 518.564,907.269 530.5,904.5 Z"/></g>
<g><path style="opacity:1" fill="#92b4d7" d="M 621.5,904.5 C 633.728,906.216 640.061,913.05 640.5,925C 636.346,941.575 626.679,946.575 611.5,940C 602.799,930.971 601.632,921.471 608,911.5C 611.712,907.396 616.212,905.062 621.5,904.5 Z"/></g>
<g><path style="opacity:1" fill="#92b4d7" d="M 670.5,904.5 C 675.782,904.259 679.949,906.593 683,911.5C 684.399,921.768 684.899,932.102 684.5,942.5C 681.5,942.5 678.5,942.5 675.5,942.5C 675.666,933.827 675.5,925.16 675,916.5C 674.559,913.355 672.725,911.688 669.5,911.5C 662.717,913.454 659.717,917.954 660.5,925C 660.768,930.629 661.101,936.463 661.5,942.5C 658.5,942.5 655.5,942.5 652.5,942.5C 652.5,930.167 652.5,917.833 652.5,905.5C 655.5,905.5 658.5,905.5 661.5,905.5C 661.34,907.199 661.506,908.866 662,910.5C 664.322,907.605 667.155,905.605 670.5,904.5 Z"/></g>
<g><path style="opacity:1" fill="#92b4d7" d="M 850.5,904.5 C 863.303,905.691 868.97,913.025 867.5,926.5C 859.167,926.5 850.833,926.5 842.5,926.5C 843.538,932.371 847.038,935.704 853,936.5C 856.455,936.129 859.455,934.795 862,932.5C 867.675,936.665 866.841,939.831 859.5,942C 845.97,945.24 837.304,940.24 833.5,927C 832.897,914.769 838.564,907.269 850.5,904.5 Z"/></g>
<g><path style="opacity:1" fill="#92b4d7" d="M 895.5,904.5 C 898.915,904.958 902.582,905.791 906.5,907C 908.917,908.663 910.75,910.829 912,913.5C 913.391,923.1 913.891,932.767 913.5,942.5C 910.5,942.5 907.5,942.5 904.5,942.5C 904.657,941.127 904.49,939.793 904,938.5C 896.949,944.443 889.783,944.943 882.5,940C 877.485,931.022 879.818,924.689 889.5,921C 894.623,920.196 899.623,919.196 904.5,918C 899.588,910.448 893.588,909.615 886.5,915.5C 881.999,913.21 881.332,910.71 884.5,908C 888.161,906.407 891.828,905.241 895.5,904.5 Z"/></g>
<g><path style="opacity:1" fill="#92b4d7" d="M 941.5,904.5 C 947.223,904.639 952.556,906.639 957.5,910.5C 956.197,912.968 954.697,915.301 953,917.5C 949.047,911.961 943.88,910.461 937.5,913C 934.833,914.667 934.833,916.333 937.5,918C 941.787,919.488 946.12,920.822 950.5,922C 958.325,925.474 960.158,930.974 956,938.5C 952.815,941.26 949.148,942.926 945,943.5C 940.923,943.428 936.423,942.595 931.5,941C 928.924,940.218 926.924,938.718 925.5,936.5C 927,934.167 928.5,931.833 930,929.5C 932.992,933.75 937.159,936.084 942.5,936.5C 945.326,936.176 947.826,935.176 950,933.5C 950.684,932.216 950.517,931.049 949.5,930C 942.664,927.839 936.164,925.006 930,921.5C 926.527,916.56 927.027,912.06 931.5,908C 934.776,906.308 938.109,905.141 941.5,904.5 Z"/></g>
<g><path style="opacity:1" fill="#91b4d7" d="M 1040.5,904.5 C 1042.55,904.749 1044.88,905.249 1047.5,906C 1049.3,906.637 1050.64,907.803 1051.5,909.5C 1050.42,911.996 1049.09,914.33 1047.5,916.5C 1044.37,912.76 1040.37,911.593 1035.5,913C 1031.64,916.047 1029.64,920.047 1029.5,925C 1029.64,930.103 1029.98,935.269 1030.5,940.5C 1030.29,941.086 1029.96,941.586 1029.5,942C 1026.29,942.89 1023.29,942.557 1020.5,941C 1021.45,929.473 1021.45,917.807 1020.5,906C 1023.82,905.502 1027.15,905.335 1030.5,905.5C 1029.81,911.599 1031.15,912.099 1034.5,907C 1036.61,906.155 1038.61,905.322 1040.5,904.5 Z"/></g>
<g><path style="opacity:1" fill="#92b4d7" d="M 1078.5,904.5 C 1091.3,905.691 1096.97,913.025 1095.5,926.5C 1087.17,926.5 1078.83,926.5 1070.5,926.5C 1071.54,932.371 1075.04,935.704 1081,936.5C 1084.45,936.129 1087.45,934.795 1090,932.5C 1095.67,936.665 1094.84,939.831 1087.5,942C 1073.97,945.24 1065.3,940.24 1061.5,927C 1060.9,914.769 1066.56,907.269 1078.5,904.5 Z"/></g>
<g><path style="opacity:1" fill="#92b4d7" d="M 148.5,905.5 C 151.5,905.5 154.5,905.5 157.5,905.5C 157.083,914.915 157.583,924.248 159,933.5C 163.911,937.323 167.911,936.323 171,930.5C 171.5,922.173 171.666,913.84 171.5,905.5C 174.5,905.5 177.5,905.5 180.5,905.5C 180.187,917.551 180.521,929.551 181.5,941.5C 178.894,942.652 176.227,942.818 173.5,942C 172.773,940.601 172.273,939.101 172,937.5C 167.05,943.491 161.217,944.658 154.5,941C 152.622,939.457 151.122,937.624 150,935.5C 148.605,925.566 148.105,915.566 148.5,905.5 Z"/></g>
<g><path style="opacity:1" fill="#91b4d7" d="M 289.5,905.5 C 295.167,905.5 300.833,905.5 306.5,905.5C 306.334,915.172 306.5,924.839 307,934.5C 309.719,935.444 312.552,935.777 315.5,935.5C 315.5,937.833 315.5,940.167 315.5,942.5C 306.5,942.5 297.5,942.5 288.5,942.5C 288.5,940.167 288.5,937.833 288.5,935.5C 292.048,935.905 295.381,935.405 298.5,934C 298.073,926.864 297.74,919.697 297.5,912.5C 294.482,912.665 291.482,912.498 288.5,912C 289.239,909.972 289.572,907.805 289.5,905.5 Z"/></g>
<g><path style="opacity:1" fill="#92b4d7" d="M 376.5,905.5 C 379.572,905.183 382.572,905.516 385.5,906.5C 388.569,914.207 391.736,921.874 395,929.5C 398.612,921.832 401.112,913.832 402.5,905.5C 405.167,905.5 407.833,905.5 410.5,905.5C 406.3,921.264 400.8,936.598 394,951.5C 388.813,956.871 382.979,957.704 376.5,954C 375.392,951.01 376.225,948.51 379,946.5C 385.326,951.416 389.159,949.749 390.5,941.5C 386.029,929.42 381.363,917.42 376.5,905.5 Z"/></g>
<g><path style="opacity:1" fill="#92b4d7" d="M 559.5,905.5 C 562.572,905.183 565.572,905.516 568.5,906.5C 571.569,914.207 574.736,921.874 578,929.5C 581.612,921.832 584.112,913.832 585.5,905.5C 588.167,905.5 590.833,905.5 593.5,905.5C 589.3,921.264 583.8,936.598 577,951.5C 571.813,956.871 565.979,957.704 559.5,954C 558.392,951.01 559.225,948.51 562,946.5C 568.326,951.416 572.159,949.749 573.5,941.5C 569.029,929.42 564.363,917.42 559.5,905.5 Z"/></g>
<g><path style="opacity:1" fill="#92b4d7" d="M 971.5,905.5 C 974.5,905.5 977.5,905.5 980.5,905.5C 980.083,914.915 980.583,924.248 982,933.5C 986.911,937.323 990.911,936.323 994,930.5C 994.5,922.173 994.666,913.84 994.5,905.5C 997.5,905.5 1000.5,905.5 1003.5,905.5C 1003.19,917.551 1003.52,929.551 1004.5,941.5C 1001.89,942.652 999.227,942.818 996.5,942C 995.773,940.601 995.273,939.101 995,937.5C 990.05,943.491 984.217,944.658 977.5,941C 975.622,939.457 974.122,937.624 973,935.5C 971.605,925.566 971.105,915.566 971.5,905.5 Z"/></g>
<g><path style="opacity:1" fill="#c6d6e4" d="M 815.5,942.5 C 814.833,931.833 814.167,921.167 813.5,910.5C 813.987,909.527 814.487,908.527 815,907.5C 815.5,919.162 815.667,930.829 815.5,942.5 Z"/></g>
<g><path style="opacity:1" fill="#e9ebed" d="M 529.5,911.5 C 534.578,911.37 537.911,913.703 539.5,918.5C 533.833,919.833 528.167,919.833 522.5,918.5C 523.909,915.091 526.242,912.757 529.5,911.5 Z"/></g>
<g><path style="opacity:1" fill="#ebeced" d="M 618.5,912.5 C 621.649,912.211 624.649,912.711 627.5,914C 632.185,920.686 632.352,927.186 628,933.5C 622.318,937.725 617.652,936.725 614,930.5C 611.538,923.406 613.038,917.406 618.5,912.5 Z"/></g>
<g><path style="opacity:1" fill="#eaebed" d="M 711.5,911.5 C 718.77,912.11 722.103,916.11 721.5,923.5C 722.041,929.769 719.541,934.102 714,936.5C 709.896,935.785 707.229,933.452 706,929.5C 705.333,925.5 705.333,921.5 706,917.5C 707.36,914.977 709.193,912.977 711.5,911.5 Z"/></g>
<g><path style="opacity:1" fill="#e9ebed" d="M 849.5,911.5 C 854.578,911.37 857.911,913.703 859.5,918.5C 853.833,919.833 848.167,919.833 842.5,918.5C 843.909,915.091 846.242,912.757 849.5,911.5 Z"/></g>
<g><path style="opacity:1" fill="#e9ebed" d="M 1077.5,911.5 C 1082.58,911.37 1085.91,913.703 1087.5,918.5C 1081.83,919.833 1076.17,919.833 1070.5,918.5C 1071.91,915.091 1074.24,912.757 1077.5,911.5 Z"/></g>
<g><path style="opacity:1" fill="#e9eaec" d="M 476.5,919.5 C 481.267,919.191 485.934,919.691 490.5,921C 495.719,928.538 493.885,933.371 485,935.5C 482.333,934.167 479.667,934.167 477,935.5C 476.501,930.177 476.334,924.844 476.5,919.5 Z"/></g>
<g><path style="opacity:1" fill="#e8eaec" d="M 208.5,925.5 C 211.833,925.5 215.167,925.5 218.5,925.5C 217.662,934.414 212.995,937.581 204.5,935C 202.675,933.534 202.175,931.701 203,929.5C 204.5,927.531 206.333,926.198 208.5,925.5 Z"/></g>
<g><path style="opacity:1" fill="#e8eaec" d="M 894.5,925.5 C 897.833,925.5 901.167,925.5 904.5,925.5C 903.662,934.414 898.995,937.581 890.5,935C 888.675,933.534 888.175,931.701 889,929.5C 890.5,927.531 892.333,926.198 894.5,925.5 Z"/></g>
<g><path style="opacity:1" fill="#c6d6e4" d="M 127.5,946.5 C 130.5,946.5 133.5,946.5 136.5,946.5C 136.806,949.385 136.473,952.052 135.5,954.5C 135.5,952.167 135.5,949.833 135.5,947.5C 132.615,947.806 129.948,947.473 127.5,946.5 Z"/></g>
</svg>
